<?xml version="1.0" encoding="UTF-8"?>
<svg width="800px" height="600px" viewBox="0 0 800 600" version="1.1" xmlns="http://www.w3.org/2000/svg">
    <g stroke="none" stroke-width="1" fill="none" fill-rule="evenodd">
        <rect fill="#F5F7FA" x="0" y="0" width="800" height="600"/>
        <path d="M400,120 C500,120 580,200 580,300 C580,400 500,480 400,480 C300,480 220,400 220,300 C220,200 300,120 400,120" 
              stroke="#5145FF" stroke-width="20" opacity="0.3"/>
        <path d="M400,170 C475,170 535,230 535,305 C535,380 475,440 400,440 C325,440 265,380 265,305 C265,230 325,170 400,170" 
              stroke="#16CC77" stroke-width="20" opacity="0.3"/>
        <circle fill="#5145FF" opacity="0.4" cx="400" cy="300" r="50"/>
        <path d="M385,300 L400,285 L415,300 L400,315 Z" fill="#FFFFFF"/>
    </g>
</svg>
