<svg xmlns="http://www.w3.org/2000/svg" viewBox="0 0 256 66"><defs><style>.cls-1{fill:#16cc77;}.cls-2{fill:#5045ff;}</style></defs><g id="Calque_2" data-name="Calque 2"><g id="Simplis_-_B100_-_Angular" data-name="Simplis - B100 - Angular"><path class="cls-1" d="M5.37,0A21.67,21.67,0,0,1,23.65,10.24,22.1,22.1,0,0,1,24.92,31.3,21.71,21.71,0,0,1,6.63,21.06,22.07,22.07,0,0,1,5.37,0Z"/><path class="cls-1" d="M12,47.6A7.71,7.71,0,0,1,19.29,46a7.87,7.87,0,0,1-2.55,7.09,7.73,7.73,0,0,1-7.3,1.64A7.87,7.87,0,0,1,12,47.6Z"/><path class="cls-1" d="M0,39.39a12.11,12.11,0,0,1,20.43-1.84A12.1,12.1,0,0,1,0,39.39Z"/><path class="cls-2" d="M40,42.45l9.16-5.24c1.66,3.8,4.51,6.36,9.76,6.36,5,0,6.3-2,6.3-3.74,0-2.82-2.65-3.94-9.62-5.84S41.92,28.81,41.92,20s7.57-14,15.6-14c7.64,0,13.61,3.61,17,10.36l-9,5.18c-1.59-3.27-3.78-5.31-8-5.31-3.32,0-5,1.64-5,3.48,0,2.1,1.13,3.54,8.37,5.71,7,2.09,14.93,4.52,14.93,14.23,0,8.85-7.17,14.1-17.25,14.1C48.83,53.8,42.59,49.21,40,42.45Z"/><path class="cls-2" d="M79.83,11.3a6,6,0,0,1,12,0,6,6,0,0,1-12,0Zm1,8.79h10V52.88H87.62a6.76,6.76,0,0,1-6.8-6.72Z"/><path class="cls-2" d="M147.86,32.75V52.88h-10V33.6c0-3.28-1.6-5.38-4.78-5.38S128,30.51,128,34.38v18.5H118V33.6c0-3.28-1.6-5.38-4.78-5.38S108,30.51,108,34.38v18.5h-10V26.81a6.76,6.76,0,0,1,6.8-6.72H108v3c1.53-2.23,4.45-3.93,8.89-3.93a9.91,9.91,0,0,1,8.7,4.33c1.86-2.63,4.91-4.33,9.62-4.33C142.89,19.17,147.86,24.55,147.86,32.75Z"/><path class="cls-2" d="M190.42,36.48c0,9.78-7.17,17.32-15.87,17.32-4.44,0-7.7-1.51-9.89-4V66h-3.15a6.76,6.76,0,0,1-6.8-6.72V20.09h9.95v3.08c2.19-2.49,5.45-4,9.89-4C183.25,19.17,190.42,26.71,190.42,36.48Zm-10,0c0-4.92-3.32-8-7.9-8s-7.9,3.08-7.9,8,3.32,8,7.9,8S180.46,41.4,180.46,36.48Z"/><path class="cls-2" d="M202.86,5H206V52.88h-10V11.72A6.76,6.76,0,0,1,202.86,5Z"/><path class="cls-2" d="M212.32,11.3a6,6,0,0,1,12,0,6,6,0,0,1-12,0Zm1,8.79h10V52.88h-.89a9,9,0,0,1-9.07-9Z"/><path class="cls-2" d="M256,43c0,7.55-6.64,10.76-13.81,10.76-6.63,0-11.68-2.49-14.27-7.81l8.63-4.85A5.45,5.45,0,0,0,242.19,45c2.39,0,3.59-.72,3.59-2,0-3.61-16.33-1.71-16.33-13.06,0-7.14,6.11-10.75,13-10.75a14.54,14.54,0,0,1,12.94,7l-8.49,4.52a4.83,4.83,0,0,0-4.45-2.88c-1.73,0-2.79.65-2.79,1.83C239.67,33.4,256,30.91,256,43Z"/></g></g></svg>