<?xml version="1.0" encoding="utf-8"?>
<!-- Generator: Adobe Illustrator 23.0.2, SVG Export Plug-In . SVG Version: 6.00 Build 0)  -->
<svg xmlns="http://www.w3.org/2000/svg" xmlns:xlink="http://www.w3.org/1999/xlink" version="1.1" id="Layer_4" x="0px" y="0px" viewBox="0 0 1400 1400" style="enable-background:new 0 0 1400 1400;" xml:space="preserve">
<style type="text/css">
	.st0{fill:#EEEEEE;}
	.st1{fill:#CAD5D8;}
	.st2{fill:#7089A0;}
	.st3{fill:#FFFFFF;}
	.st4{fill:#15a361;}
	.st5{fill:#FAD68A;}
	.st6{fill:#3b31cd;}
	.st7{fill:#C0946F;}
	.st8{fill:#F0F3FA;}
	.st9{fill:#B3B3D9;}
	.st10{fill:#547187;}
	.st11{fill:#5145ff;}
	.st12{fill:#CE7B4D;}
	.st13{fill:#BDC7D1;}
	.st14{fill:#9CA9B7;}
	.st15{fill:#1B2848;}
	.st16{fill:#2D4068;}
	.st17{fill:#16cc77;}
	.st18{fill:#AA7750;}
	.st19{fill:#DF9362;}
	.st20{fill:#562E13;}
	.st21{fill:#171F43;}
</style>
<g id="XMLID_1_">
	
	<g id="XMLID_118_">
		<path id="XMLID_123_" class="st1" d="M700,1274.53c-310.24,0-577.68,6.37-700,15.55v22.49c122.32,9.18,389.76,15.55,700,15.55    s577.68-6.37,700-15.55v-22.49C1277.68,1280.9,1010.24,1274.53,700,1274.53z"/>
	</g>
	<g id="XMLID_135_">
		<g id="XMLID_127_">
			<rect id="XMLID_130_" x="991.78" y="731.44" class="st2" width="194.81" height="4.1"/>
			<rect id="XMLID_129_" x="991.78" y="715.13" class="st2" width="194.81" height="4.1"/>
			<rect id="XMLID_128_" x="996.35" y="719.22" class="st3" width="185.67" height="12.22"/>
		</g>
		<g id="XMLID_121_">
			<g id="XMLID_117_">
				<rect id="XMLID_116_" x="987.21" y="770.29" class="st4" width="194.81" height="4.1"/>
				<rect id="XMLID_120_" x="987.21" y="753.97" class="st4" width="194.81" height="4.1"/>
				<rect id="XMLID_119_" x="991.78" y="758.07" class="st3" width="185.67" height="12.22"/>
			</g>
			<g id="XMLID_131_">
				<rect id="XMLID_134_" x="982.51" y="711.03" class="st5" width="194.81" height="4.1"/>
				<rect id="XMLID_133_" x="982.51" y="694.72" class="st5" width="194.81" height="4.1"/>
				<rect id="XMLID_132_" x="987.08" y="698.81" class="st3" width="185.67" height="12.22"/>
			</g>
			<g id="XMLID_122_">
				<rect id="XMLID_126_" x="982.51" y="749.88" class="st6" width="209.82" height="4.1"/>
				<rect id="XMLID_125_" x="982.51" y="735.61" class="st6" width="209.82" height="4.1"/>
				<rect id="XMLID_124_" x="987.21" y="739.71" class="st3" width="200.41" height="10.17"/>
			</g>
		</g>
	</g>
	<g id="XMLID_115_">
		<g id="XMLID_114_">
			<g id="XMLID_111_">
				<g id="XMLID_93_">
					
						<rect id="XMLID_96_" x="703.18" y="-50.64" transform="matrix(-1.836970e-16 1 -1 -1.836970e-16 1248.9591 -596.3763)" class="st7" width="438.97" height="753.86"/>
					<rect id="XMLID_85_" x="555.74" y="116.8" class="st8" width="733.86" height="418.97"/>
					<g id="XMLID_90_">
						<rect id="XMLID_87_" x="1113.61" y="350.61" class="st9" width="175.99" height="185.17"/>
						<rect id="XMLID_97_" x="1154.9" y="350.61" class="st8" width="134.7" height="185.17"/>
						<rect id="XMLID_86_" x="1163.63" y="264.93" class="st9" width="125.97" height="270.85"/>
						<rect id="XMLID_88_" x="1057.54" y="428.03" class="st9" width="232.06" height="107.75"/>
						<rect id="XMLID_89_" x="818.11" y="225.9" class="st9" width="104.56" height="309.88"/>
						<polygon id="XMLID_91_" class="st9" points="988.38,535.78 906.95,535.78 906.95,272.67 988.38,326.29       "/>
						<rect id="XMLID_94_" x="639.98" y="272.67" class="st8" width="67.21" height="263.11"/>
						<rect id="XMLID_95_" x="673.59" y="272.67" class="st9" width="33.61" height="263.11"/>
						<rect id="XMLID_92_" x="555.74" y="195.84" class="st9" width="107.3" height="339.94"/>
					</g>
				</g>
				<g id="XMLID_99_">
					<polygon id="XMLID_98_" class="st10" points="1314.69,119.62 530.64,119.62 545.74,106.81 1299.6,106.81      "/>
					<polygon id="XMLID_100_" class="st10" points="1314.69,142.96 530.64,142.96 545.74,130.15 1299.6,130.15      "/>
					<polygon id="XMLID_101_" class="st10" points="1314.69,166.31 530.64,166.31 545.74,153.5 1299.6,153.5      "/>
					<polygon id="XMLID_102_" class="st10" points="1314.69,189.65 530.64,189.65 545.74,176.84 1299.6,176.84      "/>
					<polygon id="XMLID_103_" class="st10" points="1314.69,213 530.64,213 545.74,200.19 1299.6,200.19      "/>
					<polygon id="XMLID_105_" class="st10" points="1314.69,236.35 530.64,236.35 545.74,223.54 1299.6,223.54      "/>
					<polygon id="XMLID_106_" class="st10" points="1314.69,259.69 530.64,259.69 545.74,246.88 1299.6,246.88      "/>
					<polygon id="XMLID_107_" class="st10" points="1314.69,283.04 530.64,283.04 545.74,270.23 1299.6,270.23      "/>
					<polygon id="XMLID_108_" class="st10" points="1314.69,306.39 530.64,306.39 545.74,293.58 1299.6,293.58      "/>
					<polygon id="XMLID_109_" class="st10" points="1314.69,329.73 530.64,329.73 545.74,316.92 1299.6,316.92      "/>
					<polygon id="XMLID_110_" class="st10" points="1314.69,353.08 530.64,353.08 545.74,340.27 1299.6,340.27      "/>
				</g>
			</g>
			<rect id="XMLID_112_" x="1263.37" y="105.17" class="st6" width="4" height="327.56"/>
			<circle id="XMLID_113_" class="st11" cx="1265.37" cy="432.73" r="8.36"/>
		</g>
		<g id="XMLID_78_">
			<g id="XMLID_37_">
				<path id="XMLID_41_" class="st12" d="M694.92,733.1c-53.61-19.08-49.44,24.16-166.19-38.41c-1.8-1.56-24.96-37.21-27.02-46.9      c-28.59,24.43-19.32,50.11-58.94,58.23c9.38,19,21.76,36.82,35.34,44.38c46.91,26.12,119.58,12.6,137.49,12.73      c16.52,0.12,30.47,9.92,39.01,3.39s31.54-5.42,47.63-4.41c16.1,1,39.28,1.51,42.89-1.51      C748.74,757.58,709.74,738.37,694.92,733.1z"/>
				<path id="XMLID_38_" class="st4" d="M525.66,674.96c-23.18-32.38-74.35-131.21-100.59-147.79      c-32.77-20.7-73.29,6.18-55.94,64.34c12.33,41.32,49.68,101.92,89.44,135.41C491.67,703.57,509.31,708.67,525.66,674.96z"/>
			</g>
			<g id="XMLID_77_">
				<g id="XMLID_70_">
					<rect id="XMLID_69_" x="306.22" y="1060.7" class="st13" width="58.75" height="172.96"/>
					<rect id="XMLID_71_" x="332.43" y="1060.7" class="st14" width="58.75" height="172.96"/>
				</g>
				<rect id="XMLID_76_" x="212.86" y="1239.55" class="st14" width="253.48" height="26.96"/>
				<g id="XMLID_81_">
					<g id="XMLID_74_">
						<path id="XMLID_73_" class="st10" d="M223.01,1291.31c21.14,0,38.28-17.14,38.28-38.28c0-21.14-17.14-38.28-38.28-38.28        h-25.89v76.56H223.01z"/>
						<circle id="XMLID_72_" class="st2" cx="197.12" cy="1253.03" r="38.28"/>
					</g>
					<g id="XMLID_75_">
						<path id="XMLID_80_" class="st10" d="M361.64,1291.31c21.14,0,38.28-17.14,38.28-38.28c0-21.14-17.14-38.28-38.28-38.28        h-25.89v76.56H361.64z"/>
						<circle id="XMLID_79_" class="st2" cx="335.75" cy="1253.03" r="38.28"/>
					</g>
					<g id="XMLID_82_">
						<path id="XMLID_84_" class="st10" d="M500.28,1291.31c21.14,0,38.28-17.14,38.28-38.28c0-21.14-17.14-38.28-38.28-38.28        h-25.89v76.56H500.28z"/>
						<circle id="XMLID_83_" class="st2" cx="474.39" cy="1253.03" r="38.28"/>
					</g>
				</g>
			</g>
			<g id="XMLID_68_">
				<g id="XMLID_52_">
					<polygon id="XMLID_51_" class="st11" points="120.59,521.73 325.9,521.73 410.72,903.71 190.62,903.71      "/>
					<path id="XMLID_50_" class="st6" d="M190.62,903L190.62,903c-23.39,4.3-45.83-11.18-50.12-34.57L86.02,571.85       c-4.3-23.39,11.18-45.83,34.57-50.12h0c23.39-4.3,45.83,11.18,50.12,34.57l54.47,296.58C229.48,876.26,214,898.7,190.62,903z"/>
				</g>
				<g id="XMLID_67_">
					
						<rect id="XMLID_63_" x="222.6" y="865.4" transform="matrix(0.9525 -0.3045 0.3045 0.9525 -274.9764 125.065)" class="st13" width="81.72" height="157.35"/>
					<g id="XMLID_66_">
						<path id="XMLID_62_" class="st11" d="M544.61,1081.98H340.94c-23.91,0-43.3-19.39-43.3-43.3v0c0-23.91,19.39-43.3,43.3-43.3        h203.67c23.91,0,43.3,19.39,43.3,43.3v0C587.91,1062.59,568.53,1081.98,544.61,1081.98z"/>
						<path id="XMLID_64_" class="st6" d="M401.3,1081.98H245.35c-23.91,0-43.3-19.39-43.3-43.3v0c0-23.91,19.39-43.3,43.3-43.3        H401.3c23.91,0,43.3,19.39,43.3,43.3v0C444.6,1062.59,425.21,1081.98,401.3,1081.98z"/>
					</g>
				</g>
			</g>
			<g id="XMLID_65_">
				<g id="XMLID_54_">
					<path id="XMLID_60_" class="st11" d="M736.62,1224.38c8.18,27.28,3.18,53.19,15.46,61.38c12.28,8.18,40.11-0.45,64.16,3.64       c24.04,4.09,80.87,1.82,94.97-8.64c14.09-10.46-101.84-58.65-116.84-64.56C779.35,1210.29,736.62,1224.38,736.62,1224.38z"/>
					<path id="XMLID_59_" class="st15" d="M345.6,865.9c7.52,54.65,1.08,120.77,58.61,140.71c57.53,19.94,152.27,12.12,218.77,23.97       c54.65,52.01,67.78,138.56,103.33,203.09c42.14-3.29,91.84-12.91,91.84-12.91c-32.92-95.47-91.08-254.12-133.87-300.86       c-28.82-31.48-135.58-67-226.64-72.48C413.47,844.75,357.85,864.9,345.6,865.9z"/>
				</g>
				<g id="XMLID_61_">
					<path id="XMLID_58_" class="st6" d="M639.3,1224.38c8.18,27.28,3.18,53.19,15.46,61.38c12.28,8.18,40.11-0.45,64.16,3.64       c24.04,4.09,80.87,1.82,94.97-8.64c14.09-10.46-101.84-58.65-116.84-64.56C682.03,1210.29,639.3,1224.38,639.3,1224.38z"/>
					<path id="XMLID_56_" class="st16" d="M248.28,865.9c7.52,54.65,1.08,120.77,58.61,140.71       c57.53,19.94,152.27,12.12,218.77,23.97c54.65,52.01,67.78,138.56,103.33,203.09c42.14-3.29,91.84-12.91,91.84-12.91       c-32.92-95.47-91.08-254.12-133.87-300.86C544.16,873.14,285.79,862.84,248.28,865.9z"/>
				</g>
			</g>
			<path id="XMLID_26_" class="st17" d="M432.9,550.46c85.96,146.08,89.59,249.29,75.04,306.27     c-7.77,30.41-250.22,46.98-259.66,11.78c-59.84-223.17-41.85-334.12-7.29-359.79C275.55,483.05,392.94,482.56,432.9,550.46z"/>
			<path id="XMLID_57_" class="st4" d="M382.86,542.53h-6c28.92,49.48,49.19,141.11,51.07,154.25     C425.3,653.97,396.03,565.46,382.86,542.53z"/>
			<g id="XMLID_16_">
				<polygon id="XMLID_15_" class="st18" points="277.72,1294.83 265.09,1294.83 365.55,795.12 403.43,795.12     "/>
				<polygon id="XMLID_17_" class="st18" points="1220.17,1294.83 1232.8,1294.83 1132.34,795.12 1094.46,795.12     "/>
			</g>
			<g id="XMLID_27_">
				<polygon id="XMLID_29_" class="st7" points="102.47,1294.83 89.84,1294.83 190.29,795.12 228.17,795.12     "/>
				<polygon id="XMLID_28_" class="st7" points="1044.92,1294.83 1057.54,1294.83 957.09,795.12 919.21,795.12     "/>
			</g>
			<path id="XMLID_30_" class="st7" d="M1052.72,815.86H110.58c-11.45,0-20.74-9.29-20.74-20.74v0c0-11.45,9.29-20.74,20.74-20.74     h942.15c11.45,0,20.74,9.29,20.74,20.74v0C1073.46,806.57,1064.18,815.86,1052.72,815.86z"/>
			<path id="XMLID_104_" class="st18" d="M1220.02,774.38H284.2c-11.45,0-20.74,9.29-20.74,20.74v0c0,11.45,9.29,20.74,20.74,20.74     h935.82c11.45,0,20.74-9.29,20.74-20.74v0C1240.76,783.67,1231.47,774.38,1220.02,774.38z"/>
			<g id="XMLID_33_">
				<polygon id="XMLID_34_" class="st13" points="615.61,765.16 615.61,774.38 693.63,774.38 693.63,753.97     "/>
				<rect id="XMLID_35_" x="693.63" y="753.97" class="st14" width="213.32" height="20.41"/>
			</g>
			<g id="XMLID_25_">
				<g id="XMLID_23_">
					<path id="XMLID_21_" class="st13" d="M988.57,715.13H624.52c-10.07,0-18.23-8.16-18.23-18.23V446.26       c0-10.07,8.16-18.23,18.23-18.23h364.04c10.07,0,18.23,8.16,18.23,18.23V696.9C1006.8,706.97,998.64,715.13,988.57,715.13z"/>
					<path id="XMLID_18_" class="st14" d="M1011.26,715.13H647.22c-10.07,0-18.23-8.16-18.23-18.23V446.26       c0-10.07,8.16-18.23,18.23-18.23h364.04c10.07,0,18.23,8.16,18.23,18.23V696.9C1029.49,706.97,1021.33,715.13,1011.26,715.13z"/>
					<g id="XMLID_137_">
						<circle id="XMLID_136_" class="st2" cx="832.17" cy="545.78" r="28.28"/>
						<circle id="XMLID_138_" class="st10" cx="826.32" cy="545.78" r="28.28"/>
					</g>
				</g>
				<g id="XMLID_20_">
					<polygon id="XMLID_22_" class="st2" points="922.67,774.38 854.4,774.38 786.13,632.58 854.4,632.58      "/>
					<polygon id="XMLID_19_" class="st10" points="931.64,774.38 863.37,774.38 795.11,632.58 863.37,632.58      "/>
				</g>
				<rect id="XMLID_24_" x="781.82" y="765.16" class="st2" width="72.58" height="9.22"/>
			</g>
			<path id="XMLID_31_" class="st10" d="M517.97,774.38c-18.34,0-11.64-31.54,20.99-28.32c74.43,7.35,91.1,28.32,65.29,28.32     C582.52,774.38,523.89,774.38,517.97,774.38z"/>
			<g id="XMLID_32_">
				<path id="XMLID_39_" class="st19" d="M558.53,717.89c-14.82-5.27-33.16-3.27-46.97,2.76c-13.82,6.03-47.33,10.28-69.17,8.8      c-21.85-1.48-76.25-17.67-108.15-34.76c-1.8-1.56-10.12-14.16-12.17-23.84c-28.59,24.43-34.16,27.05-73.78,35.18      c9.38,19,21.76,36.82,35.34,44.38c46.91,26.12,173.61,12.6,191.52,12.73c16.52,0.12,39.94-6.55,48.48-13.08      c8.54-6.53,22.07,11.05,38.16,12.06c16.1,1,39.28,1.51,42.89-1.51C608.26,757.58,573.35,723.16,558.53,717.89z"/>
				<path id="XMLID_40_" class="st4" d="M330.83,670.84c-8.26-38.95-19.1-129.21-36.51-154.92c-21.73-32.1-69.62-23.7-77.03,36.54      c-5.26,42.8,4.68,113.29,27.7,159.9C284.67,704.23,302.35,695.18,330.83,670.84z"/>
			</g>
			<path id="XMLID_42_" class="st20" d="M298.75,442.58c-41.63-35.81-52.02-75.95-50.62-114.4s29.84-51.78,52.81-37.26     c55.53,10.31,112.23,49.06,112.23,49.06c1.96,42.09-4.21,77.48-35.09,88.56S298.75,442.58,298.75,442.58z"/>
			<path id="XMLID_53_" class="st3" d="M306.24,486.01c-16.79-0.74-26.17,7.41-21.48,19.5c4.69,12.1,80.73,72.09,92.09,93.57     c-3.95-25.92,0.01-32,13.4-40.89C342.29,542.55,308.22,504.28,306.24,486.01z"/>
			<path id="XMLID_55_" class="st3" d="M390.25,558.2c14.37-0.81,24.42,15.87,24.42,15.87c-6.62-35.73-36.68-74.54-52.88-76.57     C355.66,536.48,390.25,558.2,390.25,558.2z"/>
			<path id="XMLID_43_" class="st19" d="M401.22,355.82c-4.54-36.26-37.62-61.97-73.88-57.43s-61.97,37.62-57.43,73.88     c0.35,2.79,0.98,5.67,1.86,8.62c-8.12,2.47-13.53,10.48-12.44,19.19c1.22,9.74,10.1,16.64,19.84,15.42     c2.93-0.37,5.6-1.45,7.87-3.02c17.92,47.08,14.14,80.84,14.14,80.84c21.07,40.4,80.05,71.98,89.07,64.89     c-7.54-32.68-16.08-73.53-22.07-102.84C399.67,445.77,405.52,390.18,401.22,355.82z"/>
			<g id="XMLID_48_">
				<g id="XMLID_45_">
					<path class="st21" d="M341.49,395.69c-12.43,0-22.54-10.11-22.54-22.54s10.11-22.54,22.54-22.54       c12.43,0,22.54,10.11,22.54,22.54S353.92,395.69,341.49,395.69z M341.49,354.61c-10.22,0-18.54,8.32-18.54,18.54       s8.32,18.54,18.54,18.54s18.54-8.32,18.54-18.54S351.71,354.61,341.49,354.61z"/>
					<path class="st21" d="M395.44,395.69c-12.43,0-22.54-10.11-22.54-22.54s10.11-22.54,22.54-22.54s22.54,10.11,22.54,22.54       S407.86,395.69,395.44,395.69z M395.44,354.61c-10.22,0-18.54,8.32-18.54,18.54s8.32,18.54,18.54,18.54s18.54-8.32,18.54-18.54       S405.66,354.61,395.44,354.61z"/>
					<path class="st21" d="M376.9,373.15h-4c0-2.45-1.99-4.44-4.44-4.44s-4.44,1.99-4.44,4.44h-4c0-4.65,3.78-8.44,8.44-8.44       S376.9,368.5,376.9,373.15z"/>
				</g>
				<rect x="271.95" y="371.15" class="st21" width="49.01" height="4"/>
			</g>
			<path id="XMLID_44_" class="st20" d="M300.95,290.92c-40.76,22.57-52.55,48.34-36.35,86.55c6.74,6.08,21.3,38.15,25.05,37.55     c3.75-0.6-8.87-29.13-6.64-37.27c2.22-8.15,11.38-17.89,13.11-29.25c1.73-11.36,11.11-24.69,31.11-16.29     c20,8.39,112.58,46.17,128.88-10.62C472.4,264.79,320.04,243.78,300.95,290.92z"/>
		</g>
	</g>
</g>
</svg>
